{"title":"Outlaw.Prophet.Warren.Jeffs.2014.720p.WEB-DL.H264.AAC.Mp4.Raven","uid":11170925,"size":725565232,"categoryP":"video","categoryS":"movies","magnet":"?xt=urn:btih:7205609b0cc245b9f0675e6ad959bf25286b864a&amp;dn=Outlaw.Prophet.Warren.Jeffs.2014.720p.WEB-DL.H264.AAC.Mp4.Raven&amp;tr=udp%3A%2F%2Ftracker.openbittorrent.com%3A80&amp;tr=udp%3A%2F%2Fopen.demonii.com%3A1337&amp;tr=udp%3A%2F%2Ftracker.coppersurfer.tk%3A6969&amp;tr=udp%3A%2F%2Fexodus.desync.com%3A6969","seeders":1,"leechers":0,"uploader":"Raven1969","files":-1,"time":1412704772,"description":"Outlaw.Prophet.Warren.Jeffs.2014.720p.WEB-DL.H264.AAC.Mp4.Raven.\n\n\n\nRuntime:\n120 Mins\n\n\n\nScreen images:\n\n\n &lt;a href=&quot;\nhttp://i.imgur.com/U23tpbX.png&quot; rel=&quot;nofollow&quot; target=&quot;_NEW&quot;&gt;\nhttp://i.imgur.com/U23tpbX.png&lt;/a&gt;\n\n\n &lt;a href=&quot;\nhttp://i.imgur.com/dPZqPNE.png&quot; rel=&quot;nofollow&quot; target=&quot;_NEW&quot;&gt;\nhttp://i.imgur.com/dPZqPNE.png&lt;/a&gt;\n\n\n &lt;a href=&quot;\nhttp://i.imgur.com/OnzLpYt.png&quot; rel=&quot;nofollow&quot; target=&quot;_NEW&quot;&gt;\nhttp://i.imgur.com/OnzLpYt.png&lt;/a&gt;\n\n\n &lt;a href=&quot;\nhttp://i.imgur.com/D1dphKn.png&quot; rel=&quot;nofollow&quot; target=&quot;_NEW&quot;&gt;\nhttp://i.imgur.com/D1dphKn.png&lt;/a&gt;\n\n\n &lt;a href=&quot;\nhttp://i.imgur.com/VGIE5SA.png&quot; rel=&quot;nofollow&quot; target=&quot;_NEW&quot;&gt;\nhttp://i.imgur.com/VGIE5SA.png&lt;/a&gt;\n\n\n &lt;a href=&quot;\nhttp://i.imgur.com/dU44J1r.png&quot; rel=&quot;nofollow&quot; target=&quot;_NEW&quot;&gt;\nhttp://i.imgur.com/dU44J1r.png&lt;/a&gt;\n\n\n\nIMDB:\n\n\n\n &lt;a href=&quot;\nhttp://www.imdb.com/title/tt3756722&quot; rel=&quot;nofollow&quot; target=&quot;_NEW&quot;&gt;\nhttp://www.imdb.com/title/tt3756722&lt;/a&gt;\n\n\n\n\nIMDB Rating:  6.7\n\n\n\n\nStoryline:\n\nThe true story of a Fundamentalist Mormon leader who spent more than a year on the FBI's &quot;10 Most Wanted List&quot; for unlawful flight on charges related to his alleged arrangement of illegal marriages involving underage girls.\n\nAged Rulon Jeffs is the leader - the prophet - of the Fundamentalist Church of Jesus Christ of Latter-Day Saints (FLDS) centered in Colorado City, Arizona. His followers believe the prophet is the voice of God. The church espouses polygamy - most specifically men married to several women - as a means of eternal salvation of the highest order. The prophet places the females into marriages, often as soon as they are of child bearing age, which in the eyes of the law is considered child abuse if the female is a minor. Following Rulon's death, his son Warren Jeffs assumes the FLDS leadership as prophet, somewhat against the wants of FLDS council who believed they should vote on who should become leader. Regardless, many of the congregation do follow his word as gospel as their new prophet. But Warren is more reckless in his decisions than his father, with some, including some of the young minor women, questioning his unbending decisions, excommunication often the price for crossing those ...\n\n\n\n\nGeneral\nFormat                                   : MPEG-4\nFormat profile                           : Base Media\nCodec ID                                 : isom\nFile size                                : 686 MiB\nDuration                                 : 1h 27mn\nOverall bit rate mode                    : Variable\nOverall bit rate                         : 1 095 Kbps\nEncoded date                             : UTC 2014-10-07 14:49:48\nTagged date                              : UTC 2014-10-07 14:49:48\nWriting application                      : My MP4Box GUI 0.6.0.6 &lt;http://my-mp4box-gui.zymichost.com&gt;\n\nVideo\nID                                       : 1\nFormat                                   : AVC\nFormat/Info                              : Advanced Video Codec\nFormat profile                           : &lt;a class=&quot;__cf_email__&quot; href=&quot;/cdn-cgi/l/email-protection&quot; data-cfemail=&quot;1159787679515d253f21&quot;&gt;[email&amp;#160;protected]&lt;/a&gt;&lt;script cf-hash='f9e31' type=&quot;text/javascript&quot;&gt;\n/* &lt;![CDATA[ */!function(){try{var t=&quot;currentScript&quot;in document?document.currentScript:function(){for(var t=document.getElementsByTagName(&quot;script&quot;),e=t.length;e--;)if(t[e].getAttribute(&quot;cf-hash&quot;))return t[e]}();if(t&amp;&amp;t.previousSibling){var e,r,n,i,c=t.previousSibling,a=c.getAttribute(&quot;data-cfemail&quot;);if(a){for(e=&quot;&quot;,r=parseInt(a.substr(0,2),16),n=2;a.length-n;n+=2)i=parseInt(a.substr(n,2),16)^r,e+=String.fromCharCode(i);e=document.createTextNode(e),c.parentNode.replaceChild(e,c)}}}catch(u){}}();/* ]]&gt; */&lt;/script&gt;\nFormat settings, CABAC                   : Yes\nFormat settings, ReFrames                : 5 frames\nCodec ID                                 : avc1\nCodec ID/Info                            : Advanced Video Coding\nDuration                                 : 1h 27mn\nBit rate                                 : 998 Kbps\nMaximum bit rate                         : 5 114 Kbps\nWidth                                    : 1 280 pixels\nHeight                                   : 720 pixels\nDisplay aspect ratio                     : 16:9\nFrame rate mode                          : Constant\nFrame rate                               : 23.976 fps\nColor space                              : YUV\nChroma subsampling                       : 4:2:0\nBit depth                                : 8 bits\nScan type                                : Progressive\nBits/(Pixel*Frame)                       : 0.045\nStream size                              : 625 MiB (91%)\nTitle                                    : Outlaw.Prophet.Warren.Jeffs.2014.720p.WEB-DL.H264.AAC.Mp4.Raven.mp4\nWriting library                          : x264 core 142 \nLanguage                                 : English\nEncoded date                             : UTC 2014-10-07 14:44:43\nTagged date                              : UTC 2014-10-07 14:50:25\n\nAudio\nID                                       : 2\nFormat                                   : AAC\nFormat/Info                              : Advanced Audio Codec\nFormat profile                           : LC\nCodec ID                                 : 40\nDuration                                 : 1h 27mn\nBit rate mode                            : Variable\nBit rate                                 : 93.4 Kbps\nMaximum bit rate                         : 100.0 Kbps\nChannel(s)                               : 2 channels\nChannel positions                        : Front: L R\nSampling rate                            : 48.0 KHz\nCompression mode                         : Lossy\nStream size                              : 58.5 MiB (9%)\nTitle                                    : Audio AAC LC 96kb.aac\nEncoded date                             : UTC 2014-10-07 14:49:50\nTagged date                              : UTC 2014-10-07 14:50:25\n\n\n\n\nPLEASE  SEED FOR AS LONG AS POSSIBLE TO KEEP THE TORRENT ALIVE :-)","torrent":{"xt":"urn:btih:7205609b0cc245b9f0675e6ad959bf25286b864a","amp;dn":"Outlaw.Prophet.Warren.Jeffs.2014.720p.WEB-DL.H264.AAC.Mp4.Raven","amp;tr":["udp%3A%2F%2Ftracker.openbittorrent.com%3A80","udp%3A%2F%2Fopen.demonii.com%3A1337","udp%3A%2F%2Ftracker.coppersurfer.tk%3A6969","udp%3A%2F%2Fexodus.desync.com%3A6969"],"infoHash":"7205609b0cc245b9f0675e6ad959bf25286b864a","infoHashBuffer":{"type":"Buffer","data":[114,5,96,155,12,194,69,185,240,103,94,106,217,89,191,37,40,107,134,74]},"announce":[],"urlList":[]}}